<?xml version="1.0" encoding="UTF-8" standalone="no" ?>
<!DOCTYPE svg PUBLIC "-//W3C//DTD SVG 1.1//EN" "http://www.w3.org/Graphics/SVG/1.1/DTD/svg11.dtd">
<svg xmlns="http://www.w3.org/2000/svg" xmlns:xlink="http://www.w3.org/1999/xlink" version="1.1" width="800" height="800" viewBox="0 0 800 800" xml:space="preserve">
<desc>Created with Fabric.js 5.2.4</desc>
<defs>
</defs>
<rect x="0" y="0" width="100%" height="100%" fill="transparent"></rect>
<g transform="matrix(1 0 0 1 400 400)" id="c3a44813-6016-4f5b-9cac-3d7d60a97269"  >
<rect style="stroke: none; stroke-width: 1; stroke-dasharray: none; stroke-linecap: butt; stroke-dashoffset: 0; stroke-linejoin: miter; stroke-miterlimit: 4; fill: rgb(255,255,255); fill-rule: nonzero; opacity: 1; visibility: hidden;" vector-effect="non-scaling-stroke"  x="-400" y="-400" rx="0" ry="0" width="800" height="800" />
</g>
<g transform="matrix(Infinity NaN NaN Infinity 0 0)" id="b49b34b7-081d-4991-872f-3b4ea9ee6a37"  >
</g>
<g transform="matrix(1.53 0 0 1.53 400 400)"  >
<g style="" vector-effect="non-scaling-stroke"   >
		<g transform="matrix(1 0 0 1 0 0)"  >
<path style="stroke: none; stroke-width: 1; stroke-dasharray: none; stroke-linecap: butt; stroke-dashoffset: 0; stroke-linejoin: miter; stroke-miterlimit: 4; fill: rgb(255,255,255); fill-rule: nonzero; opacity: 1;" vector-effect="non-scaling-stroke"  transform=" translate(-400, -400)" d="M 400 140.742188 C 257.003906 140.742188 140.742188 257.003906 140.742188 400 C 140.742188 543 257.003906 659.257812 400 659.257812 C 543 659.257812 659.257812 543 659.257812 400 C 659.257812 257.003906 543 140.742188 400 140.742188 Z M 400 140.742188" stroke-linecap="round" />
</g>
		<g transform="matrix(1 0 0 1 -2.37 18.76)"  >
<path style="stroke: none; stroke-width: 1; stroke-dasharray: none; stroke-linecap: butt; stroke-dashoffset: 0; stroke-linejoin: miter; stroke-miterlimit: 4; fill: rgb(0,0,0); fill-rule: nonzero; opacity: 1;" vector-effect="non-scaling-stroke"  transform=" translate(-397.63, -418.76)" d="M 465.578125 443.78125 L 327.945312 423.886719 L 332.714844 393.742188 L 467.304688 419.625 Z M 465.578125 443.78125" stroke-linecap="round" />
</g>
		<g transform="matrix(1 0 0 1 12.77 -28.96)"  >
<path style="stroke: none; stroke-width: 1; stroke-dasharray: none; stroke-linecap: butt; stroke-dashoffset: 0; stroke-linejoin: miter; stroke-miterlimit: 4; fill: rgb(0,0,0); fill-rule: nonzero; opacity: 1;" vector-effect="non-scaling-stroke"  transform=" translate(-412.77, -371.04)" d="M 468.089844 411.640625 L 346.289062 354.800781 L 357.453125 330.441406 L 479.253906 387.28125 Z M 468.089844 411.640625" stroke-linecap="round" />
</g>
		<g transform="matrix(1 0 0 1 41.1 -72.08)"  >
<path style="stroke: none; stroke-width: 1; stroke-dasharray: none; stroke-linecap: butt; stroke-dashoffset: 0; stroke-linejoin: miter; stroke-miterlimit: 4; fill: rgb(0,0,0); fill-rule: nonzero; opacity: 1;" vector-effect="non-scaling-stroke"  transform=" translate(-441.1, -327.92)" d="M 484.234375 381.207031 L 380.703125 294.929688 L 397.957031 274.628906 L 501.488281 360.90625 Z M 484.234375 381.207031" stroke-linecap="round" />
</g>
		<g transform="matrix(1 0 0 1 76.13 -106.01)"  >
<path style="stroke: none; stroke-width: 1; stroke-dasharray: none; stroke-linecap: butt; stroke-dashoffset: 0; stroke-linejoin: miter; stroke-miterlimit: 4; fill: rgb(0,0,0); fill-rule: nonzero; opacity: 1;" vector-effect="non-scaling-stroke"  transform=" translate(-476.13, -293.99)" d="M 425.378906 248.3125 L 446.691406 232.074219 L 526.878906 339.664062 L 505.5625 355.90625 Z M 425.378906 248.3125" stroke-linecap="round" />
</g>
		<g transform="matrix(1 0 0 1 -5.16 68.52)"  >
<path style="stroke: none; stroke-width: 1; stroke-dasharray: none; stroke-linecap: butt; stroke-dashoffset: 0; stroke-linejoin: miter; stroke-miterlimit: 4; fill: rgb(0,0,0); fill-rule: nonzero; opacity: 1;" vector-effect="non-scaling-stroke"  transform=" translate(-394.84, -468.52)" d="M 465.890625 483.742188 L 323.789062 483.742188 L 323.789062 453.292969 L 465.890625 453.292969 Z M 465.890625 483.742188" stroke-linecap="round" />
</g>
		<g transform="matrix(1 0 0 1 -0.08 87.79)"  >
<path style="stroke: none; stroke-width: 1; stroke-dasharray: none; stroke-linecap: butt; stroke-dashoffset: 0; stroke-linejoin: miter; stroke-miterlimit: 4; fill: rgb(0,0,0); fill-rule: nonzero; opacity: 1;" vector-effect="non-scaling-stroke"  transform=" translate(-399.92, -487.79)" d="M 491.269531 431.960938 L 491.269531 513.160156 L 308.570312 513.160156 L 308.570312 431.960938 L 278.121094 431.960938 L 278.121094 543.609375 L 521.71875 543.609375 L 521.71875 431.960938 Z M 491.269531 431.960938" stroke-linecap="round" />
</g>
</g>
</g>
</svg>